ply
format ascii 1.0
comment Created by Blender 3.6.4 - www.blender.org
element vertex 12
property float x
property float y
property float z
property float nx
property float ny
property float nz
property uchar red
property uchar green
property uchar blue
property uchar alpha
element face 6
property list uchar uint vertex_indices
end_header
-3.831923 3.831923 3.831923 0.707107 0.000000 -0.707107 83 0 224 255
-3.831923 -3.831923 3.831923 0.577350 0.577350 -0.577350 210 224 0 255
-3.831923 -3.831923 -3.831923 0.577350 0.577350 0.577350 83 0 224 255
-3.831923 3.831923 -3.831923 0.707107 0.000000 0.707107 224 116 149 255
3.831923 -3.831923 -3.831923 -0.577350 0.577350 0.577350 83 0 224 255
3.831923 3.831923 -3.831923 -0.707107 0.000000 0.707107 224 116 149 255
3.831923 -3.831923 3.831923 -0.577350 0.577350 -0.577350 224 0 21 255
3.831923 3.831923 3.831923 -0.707107 0.000000 -0.707107 224 0 218 255
-3.831923 3.831923 -3.831923 0.000000 -1.000000 0.000000 0 220 224 255
3.831923 3.831923 -3.831923 0.000000 -1.000000 0.000000 0 220 224 255
3.831923 3.831923 3.831923 0.000000 -1.000000 0.000000 0 220 224 255
-3.831923 3.831923 3.831923 0.000000 -1.000000 0.000000 0 220 224 255
4 0 1 2 3
4 3 2 4 5
4 5 4 6 7
4 7 6 1 0
4 4 2 1 6
4 8 9 10 11
