# Blender 3.6.4
# www.blender.org
mtllib wackTree.mtl
o Cube
v -1.724437 -0.092327 1.724437
v -1.709625 9.954368 -0.667369
v -1.724437 -0.092327 -1.724437
v -1.709625 9.954368 -2.035536
v 1.724437 -0.092327 1.724437
v -0.053860 9.044089 -0.598780
v 1.724437 -0.092327 -1.724437
v -0.016974 8.927341 -1.376850
v -1.724437 1.295209 1.724437
v -0.771541 2.689394 0.771541
v -0.557867 4.926090 0.954998
v -0.436099 5.986788 0.833230
v -0.788229 6.378787 -0.788229
v -1.000000 4.534090 -1.000000
v -0.771541 2.689393 -0.771541
v -1.724437 1.295208 -1.724437
v 0.504646 7.276357 -0.842334
v 1.000000 4.534090 -1.000000
v 0.771541 2.689393 -0.771541
v 1.724437 1.295208 -1.724437
v 0.459729 7.418523 0.105132
v 0.557867 4.926089 0.954998
v 0.771541 2.689393 0.771541
v 1.724437 1.295208 1.724437
v -1.400216 14.015927 -0.976779
v -1.400216 14.015927 -1.726126
v -0.650868 14.015927 -1.726126
v -0.650868 14.015927 -0.976779
v -0.341459 9.954368 -2.035536
v -0.341459 9.954368 -0.667369
v 0.788229 6.378787 -0.788229
v 0.436099 5.986788 0.833230
v 0.713348 9.095392 -1.376850
v 0.634886 9.189384 -0.598780
v 1.133193 8.376665 -0.985629
v 1.037649 8.491120 -0.038163
v 1.458494 10.599486 -1.840195
v 1.438256 10.811449 -1.459613
v 1.978706 10.430948 -1.574198
v 1.947304 10.635369 -1.107992
v -1.000000 4.534091 1.000000
v -0.788229 6.378787 0.788229
v 0.788229 6.378787 0.788229
v 1.000000 4.534090 1.000000
v -0.527701 5.724346 2.377776
v -0.405933 6.516709 1.662187
v 0.466264 6.516709 1.662187
v 0.588032 5.724345 2.377777
v -0.138310 8.450888 2.869519
v -0.349983 8.738998 2.199594
v 0.212781 8.753063 1.948665
v 0.581591 8.468880 2.548526
v 0.248629 10.562438 3.462100
v 0.122994 10.733441 3.064479
v 0.457012 10.741789 2.915545
v 0.675912 10.573117 3.271581
vn -0.9684 -0.2495 -0.0000
vn -0.0000 -0.3294 -0.9442
vn 0.8741 -0.4684 0.1282
vn -0.0000 0.3770 0.9262
vn -0.0000 -1.0000 -0.0000
vn -0.9971 0.0760 -0.0000
vn -0.0000 -0.0000 1.0000
vn -0.0000 0.5643 0.8256
vn -0.0000 -0.1229 0.9924
vn -0.0000 0.8426 -0.5386
vn 1.0000 -0.0000 -0.0000
vn 0.8256 0.5643 -0.0000
vn 0.9924 -0.1229 -0.0000
vn 0.9935 0.1141 -0.0000
vn -0.0000 -0.0000 -1.0000
vn -0.0000 0.5643 -0.8256
vn -0.0000 -0.1229 -0.9924
vn -0.0000 0.1141 -0.9935
vn -1.0000 -0.0000 -0.0000
vn -0.8256 0.5643 -0.0000
vn -0.9924 -0.1229 -0.0000
vn -0.9935 0.1141 -0.0000
vn -0.0000 1.0000 -0.0000
vn -0.0000 0.0760 0.9971
vn -0.0000 0.0760 -0.9971
vn 0.9971 0.0760 -0.0000
vn 0.9535 0.3013 -0.0000
vn -0.2820 0.5361 0.7957
vn 0.1774 -0.2961 -0.9385
vn -0.2638 0.3787 0.8871
vn -0.2133 0.9659 -0.1466
vn 0.4840 0.7966 -0.3622
vn -0.9097 0.3758 -0.1767
vn 0.9317 -0.3273 0.1575
vn 0.2622 -0.3795 -0.8873
vn -0.0000 0.1141 0.9935
vn 0.1720 -0.1303 0.9764
vn 0.9923 0.0935 -0.0817
vn -0.0000 -0.8721 0.4893
vn -0.9929 0.1125 -0.0398
vn -0.3745 0.4422 -0.8150
vn -0.9912 0.0652 0.1152
vn -0.1713 0.1717 -0.9701
vn 0.9531 0.0766 -0.2928
vn 0.1352 0.9250 0.3551
vn 0.8705 0.1246 -0.4762
vn 0.3931 -0.3145 0.8640
vn -0.9402 0.0793 0.3312
vt 0.575000 0.000000
vt 0.625000 0.000000
vt 0.625000 0.250000
vt 0.575000 0.250000
vt 0.625000 0.500000
vt 0.575000 0.500000
vt 0.578515 0.704713
vt 0.578515 0.545072
vt 0.575000 0.750000
vt 0.625000 0.750000
vt 0.625000 1.000000
vt 0.575000 1.000000
vt 0.125000 0.500000
vt 0.375000 0.500000
vt 0.375000 0.750000
vt 0.125000 0.750000
vt 0.425000 0.750000
vt 0.425000 1.000000
vt 0.375000 1.000000
vt 0.475000 0.750000
vt 0.475000 1.000000
vt 0.525000 0.750000
vt 0.525000 1.000000
vt 0.564375 0.808737
vt 0.564375 0.941263
vt 0.425000 0.500000
vt 0.475000 0.500000
vt 0.525000 0.500000
vt 0.375000 0.250000
vt 0.425000 0.250000
vt 0.475000 0.250000
vt 0.525000 0.250000
vt 0.375000 0.000000
vt 0.425000 0.000000
vt 0.475000 0.000000
vt 0.525000 0.000000
vt 0.875000 0.500000
vt 0.875000 0.750000
vt 0.621485 0.699544
vt 0.621485 0.550226
vt 0.535625 0.947461
vt 0.535625 0.802539
s 0
f 42/1/1 2/2/1 4/3/1 13/4/1
f 13/4/2 4/3/2 29/5/2 31/6/2
f 21/7/3 17/8/3 35/8/3 36/7/3
f 43/9/4 30/10/4 2/11/4 42/12/4
f 3/13/5 7/14/5 5/15/5 1/16/5
f 4/3/6 2/2/6 25/2/6 26/3/6
f 5/15/7 24/17/7 9/18/7 1/19/7
f 24/17/8 23/20/8 10/21/8 9/18/8
f 23/20/9 44/22/9 41/23/9 10/21/9
f 32/24/10 12/25/10 46/25/10 47/24/10
f 7/14/11 20/26/11 24/17/11 5/15/11
f 20/26/12 19/27/12 23/20/12 24/17/12
f 19/27/13 18/28/13 44/22/13 23/20/13
f 18/28/14 31/6/14 43/9/14 44/22/14
f 3/29/15 16/30/15 20/26/15 7/14/15
f 16/30/16 15/31/16 19/27/16 20/26/16
f 15/31/17 14/32/17 18/28/17 19/27/17
f 14/32/18 13/4/18 31/6/18 18/28/18
f 1/33/19 9/34/19 16/30/19 3/29/19
f 9/34/20 10/35/20 15/31/20 16/30/20
f 10/35/21 41/36/21 14/32/21 15/31/21
f 41/36/22 42/1/22 13/4/22 14/32/22
f 27/5/23 26/37/23 25/38/23 28/10/23
f 2/11/24 30/10/24 28/10/24 25/11/24
f 29/5/25 4/3/25 26/3/25 27/5/25
f 30/10/26 29/5/26 27/5/26 28/10/26
f 6/39/27 8/40/27 29/5/27 30/10/27
f 8/40/27 17/8/27 31/6/27 29/5/27
f 21/7/27 6/39/27 30/10/27 43/9/27
f 17/8/27 21/7/27 43/9/27 31/6/27
f 34/39/28 36/7/28 40/7/28 38/39/28
f 17/8/29 8/40/29 33/40/29 35/8/29
f 6/39/30 21/7/30 36/7/30 34/39/30
f 8/40/31 6/39/31 34/39/31 33/40/31
f 39/8/32 37/40/32 38/39/32 40/7/32
f 33/40/33 34/39/33 38/39/33 37/40/33
f 36/7/34 35/8/34 39/8/34 40/7/34
f 35/8/35 33/40/35 37/40/35 39/8/35
f 11/41/36 12/25/36 42/12/36 41/23/36
f 32/24/36 22/42/36 44/22/36 43/9/36
f 22/42/36 11/41/36 41/23/36 44/22/36
f 12/25/36 32/24/36 43/9/36 42/12/36
f 45/41/37 48/42/37 52/42/37 49/41/37
f 22/42/38 32/24/38 47/24/38 48/42/38
f 11/41/39 22/42/39 48/42/39 45/41/39
f 12/25/40 11/41/40 45/41/40 46/25/40
f 51/24/41 50/25/41 54/25/41 55/24/41
f 46/25/42 45/41/42 49/41/42 50/25/42
f 47/24/43 46/25/43 50/25/43 51/24/43
f 48/42/44 47/24/44 51/24/44 52/42/44
f 56/42/45 55/24/45 54/25/45 53/41/45
f 52/42/46 51/24/46 55/24/46 56/42/46
f 49/41/47 52/42/47 56/42/47 53/41/47
f 50/25/48 49/41/48 53/41/48 54/25/48
